<?xml version="1.0" encoding="UTF-8"?>
<svg width="80" height="24" viewBox="0 0 80 24" fill="none" xmlns="http://www.w3.org/2000/svg">
  <path d="M12.8 0H3.2C1.44 0 0 1.44 0 3.2V20.8C0 22.56 1.44 24 3.2 24H12.8C14.56 24 16 22.56 16 20.8V3.2C16 1.44 14.56 0 12.8 0Z" fill="#33CCCC"/>
  <path d="M28.8 0H19.2C17.44 0 16 1.44 16 3.2V20.8C16 22.56 17.44 24 19.2 24H28.8C30.56 24 32 22.56 32 20.8V3.2C32 1.44 30.56 0 28.8 0Z" fill="#33CCCC"/>
  <path d="M44.8 0H35.2C33.44 0 32 1.44 32 3.2V20.8C32 22.56 33.44 24 35.2 24H44.8C46.56 24 48 22.56 48 20.8V3.2C48 1.44 46.56 0 44.8 0Z" fill="#33CCCC"/>
  <path d="M60.8 0H51.2C49.44 0 48 1.44 48 3.2V20.8C48 22.56 49.44 24 51.2 24H60.8C62.56 24 64 22.56 64 20.8V3.2C64 1.44 62.56 0 60.8 0Z" fill="#33CCCC"/>
  <path d="M76.8 0H67.2C65.44 0 64 1.44 64 3.2V20.8C64 22.56 65.44 24 67.2 24H76.8C78.56 24 80 22.56 80 20.8V3.2C80 1.44 78.56 0 76.8 0Z" fill="#33CCCC"/>
</svg>
